<svg width="162" height="40" viewBox="0 0 162 40" fill="none" xmlns="http://www.w3.org/2000/svg">
<path fill-rule="evenodd" clip-rule="evenodd" d="M0 10.8902L18.8981 0L34.8935 8.90519V13.2702L26.3615 18.0689L18.8981 13.48L11.7161 17.7307L7.94454 15.3791L18.8981 8.90519L26.3615 13.48L30.5174 10.8902L18.7341 4.36595L3.92284 12.8715V17.7307L18.8981 26.6319L27.0863 21.7084L34.8935 26.4318V30.9741L18.7341 40L0 28.9657L0 24.2025L18.8981 35.5739L31.0341 28.7468L27.0863 26.4318L18.8981 30.9741L0 20L0 10.8902Z" fill="white"/>
<path d="M55.8244 27.5677C54.8336 27.5677 53.9149 27.3961 53.0684 27.0528C52.2218 26.7095 51.4819 26.2258 50.8485 25.6017C50.2152 24.9775 49.723 24.2504 49.3718 23.4202C49.0206 22.5901 48.8451 21.6945 48.8451 20.7333C48.8451 19.7721 49.0206 18.8764 49.3718 18.0463C49.723 17.2162 50.2121 16.4953 50.8391 15.8836C51.4662 15.272 52.203 14.7945 53.0496 14.4512C53.8961 14.1079 54.8148 13.9363 55.8055 13.9363C56.859 13.9363 57.7965 14.1048 58.618 14.4418C59.4394 14.7789 60.1574 15.2408 60.7719 15.8275L58.7967 17.8123C58.4455 17.4378 58.0222 17.1444 57.5269 16.9322C57.0315 16.72 56.4577 16.6139 55.8055 16.6139C55.2286 16.6139 54.6988 16.7106 54.2159 16.9041C53.7331 17.0976 53.3192 17.3753 52.9743 17.7374C52.6294 18.0994 52.3598 18.5363 52.1654 19.0481C51.971 19.5599 51.8738 20.1216 51.8738 20.7333C51.8738 21.3574 51.971 21.9254 52.1654 22.4372C52.3598 22.949 52.6294 23.3859 52.9743 23.7479C53.3192 24.1099 53.7331 24.3908 54.2159 24.5905C54.6988 24.7903 55.2286 24.8901 55.8055 24.8901C56.4828 24.8901 57.0722 24.784 57.5739 24.5718C58.0755 24.3596 58.5082 24.0662 58.8719 23.6918L60.866 25.6766C60.2264 26.2633 59.4959 26.7251 58.6744 27.0622C57.8529 27.3992 56.9029 27.5677 55.8244 27.5677Z" fill="white"/>
<path fill-rule="evenodd" clip-rule="evenodd" d="M62.4838 27.3618V14.1423H64.7413H65.4374H67.9017C68.7796 14.1423 69.5509 14.3077 70.2156 14.6385C70.8803 14.9693 71.4008 15.4281 71.777 16.0148C72.1533 16.6015 72.3414 17.2756 72.3414 18.037C72.3414 18.811 72.1533 19.4882 71.777 20.0686C71.4008 20.6491 70.8741 21.1016 70.1968 21.4262C69.819 21.6072 69.4041 21.7378 68.9522 21.8178L73.2068 27.3618H69.7077L65.746 21.913H65.4374V27.3618H62.4838ZM65.4374 19.741V16.4267H67.5631C68.1526 16.4267 68.6041 16.5828 68.9176 16.8948C69.2311 17.2069 69.3879 17.6001 69.3879 18.0745C69.3879 18.5863 69.228 18.992 68.9082 19.2916C68.5884 19.5912 68.1338 19.741 67.5443 19.741H65.4374Z" fill="white"/>
<path fill-rule="evenodd" clip-rule="evenodd" d="M78.3142 27.0622C79.1608 27.4117 80.0857 27.5865 81.089 27.5865C82.0673 27.5865 82.9797 27.4117 83.8262 27.0622C84.6727 26.7127 85.4096 26.229 86.0366 25.6111C86.6637 24.9932 87.1528 24.2691 87.504 23.439C87.8551 22.6089 88.0307 21.7132 88.0307 20.7521C88.0307 19.7784 87.8551 18.8765 87.504 18.0464C87.1528 17.2162 86.6606 16.4922 86.0272 15.8743C85.3939 15.2564 84.6539 14.7758 83.8074 14.4325C82.9608 14.0892 82.0422 13.9176 81.0514 13.9176C80.0481 13.9176 79.1232 14.0892 78.2766 14.4325C77.4301 14.7758 76.6933 15.2564 76.0662 15.8743C75.4391 16.4922 74.95 17.2131 74.5989 18.037C74.2477 18.8609 74.0721 19.7597 74.0721 20.7333C74.0721 21.6945 74.2477 22.5902 74.5989 23.4203C74.95 24.2504 75.4454 24.9776 76.085 25.6017C76.7246 26.2259 77.4677 26.7127 78.3142 27.0622ZM83.1302 24.3846C82.5344 24.7341 81.8415 24.9089 81.0514 24.9089C80.462 24.9089 79.9227 24.809 79.4336 24.6093C78.9445 24.4096 78.5275 24.1256 78.1826 23.7573C77.8377 23.3891 77.5712 22.9491 77.383 22.4373C77.1949 21.9255 77.1009 21.3575 77.1009 20.7333C77.1009 19.897 77.2639 19.1698 77.59 18.5519C77.9161 17.934 78.377 17.4534 78.9727 17.1101C79.5684 16.7668 80.2613 16.5952 81.0514 16.5952C81.6409 16.5952 82.177 16.692 82.6598 16.8854C83.1427 17.0789 83.5597 17.3598 83.9109 17.728C84.262 18.0963 84.5317 18.5332 84.7198 19.0388C84.9079 19.5443 85.002 20.1092 85.002 20.7333C85.002 21.5572 84.8389 22.2843 84.5128 22.9147C84.1868 23.5451 83.7259 24.0351 83.1302 24.3846Z" fill="white"/>
<path d="M93.2229 27.3618L88.9525 14.1423H91.8872L95.01 24.3097H93.8625L96.91 14.1423H99.2239L102.272 24.3097H101.143L104.247 14.1423H107.163L102.892 27.3618H100.578L97.512 17.1944H98.6031L95.5368 27.3618H93.2229Z" fill="white"/>
<path fill-rule="evenodd" clip-rule="evenodd" d="M108.762 14.1423V27.3618H110.756H111.715H114.123C115.114 27.3618 116.033 27.1996 116.879 26.875C117.726 26.5504 118.462 26.0948 119.09 25.5081C119.717 24.9214 120.203 24.2224 120.547 23.411C120.892 22.5996 121.065 21.7133 121.065 20.7521C121.065 19.7784 120.892 18.889 120.547 18.0838C120.203 17.2787 119.713 16.5796 119.08 15.9867C118.447 15.3938 117.707 14.9381 116.86 14.6198C116.014 14.3015 115.089 14.1423 114.086 14.1423H111.715H110.662H108.762ZM111.715 16.7076V24.7779H114.048C114.851 24.7779 115.553 24.6187 116.155 24.3004C116.757 23.9821 117.221 23.5171 117.547 22.9054C117.873 22.2937 118.036 21.5697 118.036 20.7334C118.036 19.897 117.87 19.1792 117.538 18.58C117.205 17.9809 116.741 17.519 116.145 17.1944C115.55 16.8699 114.851 16.7076 114.048 16.7076H111.715Z" fill="white"/>
<path fill-rule="evenodd" clip-rule="evenodd" d="M122.946 27.3618V14.1423H125.203H125.9H132.145V16.6701H125.9V19.6473H131.844V22.1752H125.9V27.3618H122.946Z" fill="white"/>
<path fill-rule="evenodd" clip-rule="evenodd" d="M134.045 14.1423V27.3618H136.321H136.999H142.887V24.7779H136.999V14.1423H134.045Z" fill="white"/>
<path d="M144.599 27.3618V14.1423H147.552V27.3618H144.599Z" fill="white"/>
<path fill-rule="evenodd" clip-rule="evenodd" d="M158.539 27.3618L155.579 22.6523L152.481 27.3618H149.114L153.838 20.5518L149.358 14.1423H152.876L155.669 18.3834L158.407 14.1423H161.774L157.426 20.4987L162 27.3618H158.539Z" fill="white"/>
</svg>
